<svg width="666" height="391" viewBox="0 0 666 391" fill="none" xmlns="http://www.w3.org/2000/svg">
<path d="M21.3095 118.606L212.723 26.6797C215.309 25.4376 216.955 22.8226 216.955 19.9534C216.955 13.052 225.519 9.84927 230.047 15.0572L238.746 25.0612C243.156 30.1335 250.802 30.7764 255.997 26.5119L267.797 16.827C274.016 11.7221 282.69 10.8414 289.808 14.592L307.018 23.6591C308.265 24.3162 309.578 24.8396 310.936 25.2206L389.623 47.3067C398.748 49.868 402.397 60.8388 396.624 68.3556C392.847 73.2731 392.94 80.1404 396.849 84.9536L422.871 116.996C432.787 129.207 452.267 125.719 457.332 110.827L459.333 104.941C462.701 95.0389 473.13 89.4035 483.259 92.0133L541.642 107.057C548.344 108.783 551.894 116.111 549.095 122.44C546.309 128.74 549.813 136.039 556.472 137.804L618.813 154.33C623.568 155.591 627.692 158.56 630.396 162.67L657.582 203.992C662.55 211.542 661.837 221.485 655.843 228.249L575.527 318.889C572.407 322.41 568.146 324.718 563.494 325.409L522.769 331.452C517.229 332.274 512.288 335.381 509.147 340.018L497.335 357.454C492.584 364.466 483.931 367.726 475.734 365.59L307.874 321.855C299.463 319.664 290.599 323.156 285.943 330.495L258.523 373.716C255.604 378.316 250.936 381.527 245.596 382.606L214.879 388.814C208.145 390.175 201.185 387.984 196.444 383.013L31.9506 210.531C26.2796 204.584 25.118 195.648 29.0803 188.449C32.5538 182.138 32.124 174.4 27.9731 168.513L13.6223 148.159C6.49463 138.051 10.1596 123.96 21.3095 118.606Z" fill="#71AFEC"/>
<path d="M316 268L329.535 259.221C332.775 257.119 336.556 256 340.418 256H348.257C355.077 256 360.94 260.833 362.241 267.527C363.04 271.633 365.602 275.181 369.249 277.229L394.263 291.278C397.985 293.368 402.289 294.181 406.517 293.591C415.336 292.36 423.87 297.255 427.26 305.489L432 317" stroke="white" stroke-width="9" stroke-linejoin="round"/>
<path d="M434 278.5L435.736 276.221C439.665 271.064 440.851 264.323 438.917 258.135L437 252L426.521 225.12C425.844 223.382 425.413 221.557 425.241 219.7L423 195.5" stroke="white" stroke-width="9" stroke-linejoin="round"/>
<path d="M226 46.5L210.682 68.4415C208.611 71.4088 207.5 74.9405 207.5 78.5594C207.5 86.0217 212.186 92.68 219.211 95.1982L227.929 98.3236C231.782 99.7048 234.837 102.703 236.291 106.529L240.983 118.875C242.198 122.074 239.835 125.5 236.413 125.5C232.904 125.5 230.538 129.088 231.92 132.314L239.569 150.162C240.513 152.364 241 154.735 241 157.132V184.278C241 187.062 240.419 189.815 239.294 192.362L232.624 207.457C231.878 209.144 230.903 210.72 229.725 212.14L222.567 220.773C217.639 226.714 216.571 234.961 219.821 241.962L233.071 270.5C233.689 271.829 234.158 273.223 234.471 274.655L242.363 310.793C243.108 314.205 242.947 317.752 241.895 321.083L231.5 354" stroke="white" stroke-width="9" stroke-linejoin="round"/>
<path d="M216.5 95L211.841 101.989C209.05 106.175 204.784 109.156 199.893 110.336L168.836 117.833C165.66 118.599 162.345 118.576 159.181 117.766L136.198 111.88C128.236 109.841 119.836 112.881 115.023 119.545L107.841 129.489C105.04 133.367 100.942 136.113 96.2892 137.228L43 150" stroke="white" stroke-width="9" stroke-linejoin="round"/>
<path d="M242.5 157.5L234.362 166.045C227.541 173.206 216.511 174.308 208.41 168.637L203.36 165.102C196.777 160.494 188.076 160.273 181.268 164.541L163.209 175.861C160.445 177.594 158.147 179.977 156.515 182.802L146 201" stroke="white" stroke-width="9" stroke-linejoin="round"/>
<path d="M244 126L265.361 138.324C268.4 140.077 271.847 141 275.356 141H289.254C293.893 141 298.343 142.843 301.624 146.124L302.297 146.797C304.067 148.567 305.33 150.778 305.955 153.202C307.701 159.967 314.165 164.411 321.106 163.619L351.231 160.184C359.999 159.184 367.075 152.556 368.645 143.872L373.097 119.255C373.999 114.272 372.976 109.131 370.235 104.873L342 61" stroke="white" stroke-width="9" stroke-linejoin="round"/>
<path d="M266 139.5L274.541 127.618C276.483 124.915 277.72 121.771 278.14 118.47L279.792 105.493C280.556 99.4901 283.996 94.1561 289.15 90.9847L308.047 79.3557C311.489 77.2375 315.714 76.8201 319.504 78.2238L323.775 79.8055C325.756 80.5393 327.981 80.1078 329.545 78.6864C331.316 77.0759 331.882 74.5246 330.958 72.3161L323.5 54.5" stroke="white" stroke-width="9" stroke-linejoin="round"/>
<path d="M234 271.5L246.807 256.692C248.835 254.347 251.781 253 254.881 253C259.679 253 263.887 256.2 265.169 260.824L277 303.5L285.5 334" stroke="white" stroke-width="9" stroke-linejoin="round"/>
<path d="M241.5 184.5L249.606 187.502C253.131 188.808 256.952 189.093 260.631 188.327L267.313 186.935C274.512 185.435 281.953 188.007 286.69 193.632L292.015 199.955C293.979 202.287 296.45 204.14 299.24 205.371L349.889 227.716C357.728 231.174 366.898 229.256 372.693 222.946L374.167 221.34C380.724 214.201 391.457 212.791 399.635 217.995L400.879 218.786C405.135 221.495 408.21 225.712 409.488 230.592L417.042 259.431C417.995 263.07 419.954 266.366 422.696 268.941L428.009 273.932C432.429 278.084 434.726 284.017 434.255 290.063L432 319" stroke="white" stroke-width="9" stroke-linejoin="round"/>
<path d="M371.5 136.5L390.846 155.474C395.064 159.611 400.896 161.671 406.777 161.102L444 157.5H447.629C457.593 157.5 466.037 164.834 467.432 174.7L470.753 198.185C471.547 203.796 474.684 208.807 479.384 211.973L489.082 218.504C493.802 221.683 496.944 226.722 497.722 232.36L500.074 249.409C500.356 251.457 500.955 253.449 501.848 255.314L510.864 274.143C514.777 282.314 512.708 292.096 505.821 297.983L490.573 311.018C487.905 313.299 485.884 316.242 484.713 319.552L472 355.5" stroke="white" stroke-width="9" stroke-linejoin="round"/>
<path d="M503.5 150L511.856 157.52C515.909 161.168 521.708 162.136 526.727 160.004C533.397 157.169 541.129 159.882 544.565 166.263L545.956 168.846C547.919 172.493 551.13 175.311 555 176.786L557.548 177.756C569.01 182.123 573.053 196.283 565.624 206.044L564.323 207.753C559.106 214.606 549.423 216.147 542.337 211.251C534.426 205.785 523.52 208.418 518.973 216.89L516.5 221.5" stroke="white" stroke-width="9" stroke-linejoin="round"/>
<path d="M580 189L581.474 187.956C587.882 183.417 591.041 175.546 589.549 167.835L589 165" stroke="white" stroke-width="9" stroke-linejoin="round"/>
</svg>
